<svg xmlns="http://www.w3.org/2000/svg" xmlns:graphite="https://graphite.art" viewBox="0 0 750 750" width="750" height="750"><defs><clipPath id="artboard-6242343396500685345"><rect x="0" y="0" width="750" height="750" /></clipPath><linearGradient id="5553307136926390156" x1="240.82977502848223" y1="220.49706268708186" x2="486.09713347897224" y2="724.0256608912223" gradientTransform="matrix(0.001898664,0,0,0.001800292,-0.186665171,-0.12518266)"><stop stop-color="#43d1f2" /><stop offset="1" stop-color="#f60ff8" /></linearGradient></defs><g>
<rect fill="#ffffff" fill-opacity="0" x="0" y="0" width="750" height="750"/>
<g clip-path="url(#artboard-6242343396500685345)">
	<g>
		<path d="M309.38360163,69.53463244 C377.86460645,69.53463244 433.49178217,103.15077411 433.49178217,144.53463244 C433.49178217,164.3267701808952 420.7681688297334,182.34219676513982 400.0000000000012,195.75330380457893 C400.0000000000012,195.75330380457893 400,200 400,200 C400,200 500,200 500,200 C500,200 500,125 500,125 C500,125 550,125 550,125 C550,125 550,200 550,200 C550,200 625,200 625,200 C625,200 625,250 625,250 C625,250 550,250 550,250 C550,250 550,350 550,350 C550,350 625,350 625,350 C625,350 625,400 625,400 C625,400 550,400 550,400 C550,400 550,500 550,500 C550,500 625,500 625,500 C625,500 625,550 625,550 C625,550 550,550 550,550 C550,550 550,625 550,625 C550,625 500,625 500,625 C500,625 500,550 500,550 C500,550 400,550 400,550 C400,550 400,625 400,625 C400,625 350,625 350,625 C350,625 350,550 350,550 C350,550 250,550 250,550 C250,550 250,625 250,625 C250,625 200,625 200,625 C200,625 200,550 200,550 C200,550 125,550 125,550 C125,550 125,500 125,500 C125,500 200,500 200,500 C200,500 200,400 200,400 C200,400 125,400 125,400 C125,400 125,350 125,350 C125,350 200,350 200,350 C200,350 200,293.31073809696744 199.99999999276338,293.31073809696744 C142.20053033741596,286.92261338055016 98.31394282000001,256.29275993140925 98.31394282000001,219.53463244 C98.31394282000001,185.94089858 134.96965044,157.46572678 185.40111276000002,147.93573558 C185.31761617,146.80828661 185.27542109,145.67440556 185.27542109,144.53463244 C185.27542109,103.15077411 240.90259681,69.53463244 309.38360163,69.53463244 ZM474.10818054000003,275 C474.10818054000003,305.6373181875496 443.62034822347323,332.01734952641635 400.0000000000009,343.65207683611925 C400.0000000000009,343.65207683611925 400,350 400,350 C400,350 500,350 500,350 C500,350 500,250 500,250 C500,250 467.0309494108873,250 467.0309494108873,250 C471.61371297849684,257.8213725768019 474.10818054000003,266.23652395669507 474.10818054000003,275 ZM250,350 C250,350 350,350 350,350 C349.96896981727957,349.99999827447147 349.9534548307424,349.9999965489429 349.95345504038835,349.99999482341434 C349.9459260143327,349.9999930978858 349.939499619349,349.9999913723572 349.9341758554373,349.9999896468287 C349.9293893263479,349.9999881285528 349.9250016520604,349.9999866102769 349.9210128325748,349.999985092001 C308.9522145715024,349.98451987542416 272.59106656568804,337.93779473743166 250.00000001007282,319.39677216375037 C250.00000001007282,319.39677216375037 250,350 250,350 ZM250,500 C250,500 350,500 350,500 C350,500 350,400 350,400 C350,400 250,400 250,400 C250,400 250,500 250,500 ZM400,500 C400,500 500,500 500,500 C500,500 500,400 500,400 C500,400 400,400 400,400 C400,400 400,500 400,500 Z" fill="url('#5553307136926390156')"/>
	</g>
</g></g></svg>